#!OML:ASF E:\acrobat2\Project_11_07_03\Capture day 1\Session 1\Acrobat.ASF
:FULLY-SPECIFIED
:DEGREES
565
root 10.7667 6.02807 11.6549 -88.4967 3.79841 179.7
lowerback -4.76016 -3.24361 5.07798
upperback 0.201049 -4.65452 0.92361
thorax 2.54743 -2.26493 -2.19156
lowerneck 5.13821 -14.5787 -10.9385
upperneck -29.0503 -15.4324 29.6109
head -5.71779 -8.36421 12.4623
rclavicle 1.11319e-014 -2.1506e-014
rhumerus 31.9788 -32.9743 -32.3379
rradius 119.76
rwrist -22.6614
rhand -19.2414 -42.6997
rfingers 7.12502
rthumb 7.07214 -72.5616
lclavicle 1.11319e-014 -2.1506e-014
lhumerus 16.406 47.7503 1.20648
lradius 107.98
lwrist 33.5455
lhand -4.61625 -25.6083
lfingers 7.12502
lthumb 21.1621 3.25666
rfemur -0.220055 16.5649 -8.66886
rtibia 2.31203
rfoot 32.1344 -21.0757
rtoes 18.3221
lfemur -10.2025 -21.2824 2.93384
ltibia 17.2727
lfoot 37.3742 11.57
ltoes 17.4791
566
root 10.7632 6.0274 11.6519 -88.4896 3.75468 179.691
lowerback -4.77398 -3.24886 5.16659
upperback 0.210834 -4.66815 0.927819
thorax 2.5578 -2.27022 -2.23817
lowerneck 5.13014 -14.5917 -10.9313
upperneck -29.0422 -15.4442 29.6671
head -5.70468 -8.37634 12.4778
rclavicle 2.06736e-014 -6.98852e-015
rhumerus 31.9986 -32.9777 -32.3614
rradius 119.788
rwrist -22.6893
rhand -19.2812 -42.7049
rfingers 7.12502
rthumb 7.03372 -72.568
lclavicle 2.06736e-014 -6.98852e-015
lhumerus 16.3287 47.7769 1.15158
lradius 108.015
lwrist 33.6164
lhand -4.64604 -25.6214
lfingers 7.12502
lthumb 21.1335 3.24683
rfemur 0.176382 16.5604 -8.66399
rtibia 1.53727
rfoot 32.323 -21.6057
rtoes 18.775
lfemur -10.2751 -21.2969 2.97785
ltibia 17.3953
lfoot 37.3874 11.4623
ltoes 17.3765
567
root 10.7601 6.02707 11.6492 -88.4795 3.73415 179.679
lowerback -4.78299 -3.25707 5.22369
upperback 0.217201 -4.68335 0.927727
thorax 2.56386 -2.27682 -2.27145
lowerneck 5.12477 -14.6084 -10.9256
upperneck -29.0402 -15.4665 29.6896
head -5.69591 -8.38986 12.4816
rclavicle -1.90833e-014 2.28043e-014
rhumerus 32.0157 -32.9655 -32.4005
rradius 119.824
rwrist -22.6951
rhand -19.3204 -42.7115
rfingers 7.12502
rthumb 6.99583 -72.5759
lclavicle -1.90833e-014 2.28043e-014
lhumerus 16.2577 47.7975 1.11704
lradius 108.057
lwrist 33.6737
lhand -4.60662 -25.7043
lfingers 7.12502
lthumb 21.1713 3.15967
rfemur 0.947708 16.557 -8.74804
rtibia 1.51076e-014
rfoot 32.8567 -22.3526
rtoes 19.2029
lfemur -10.3567 -21.3035 2.9972
ltibia 17.5219
lfoot 37.3974 11.3746
ltoes 17.2943
568
root 10.7576 6.02712 11.6476 -88.466 3.73161 179.665
lowerback -4.79176 -3.26677 5.25462
upperback 0.221906 -4.69883 0.92469
thorax 2.56982 -2.2839 -2.29325
lowerneck 5.09742 -14.6333 -10.918
upperneck -29.0155 -15.5043 29.7087
head -5.67335 -8.41 12.477
rclavicle 1.11319e-014 9.31803e-017
rhumerus 32.0204 -32.9427 -32.451
rradius 119.874
rwrist -22.6878
rhand -19.356 -42.7212
rfingers 7.12502
rthumb 6.96154 -72.5867
lclavicle 1.11319e-014 9.31803e-017
lhumerus 16.191 47.8116 1.10385
lradius 108.108
lwrist 33.7174
lhand -4.48956 -25.8805
lfingers 7.12502
lthumb 21.2838 2.97085
rfemur 0.950804 16.5385 -8.72752
rtibia -5.1684e-015
rfoot 32.8266 -22.6079
rtoes 19.7083
lfemur -10.4451 -21.3012 2.99946
ltibia 17.6471
lfoot 37.4026 11.3203
ltoes 17.3007
569
root 10.7555 6.02768 11.6477 -88.4512 3.74666 179.652
lowerback -4.79927 -3.27687 5.26052
upperback 0.226645 -4.71322 0.9184
thorax 2.57686 -2.2907 -2.30446
lowerneck 5.0702 -14.6543 -10.9164
upperneck -28.9932 -15.5434 29.6846
head -5.65627 -8.42556 12.4583
rclavicle -5.88403e-014 -5.59703e-015
rhumerus 32.0112 -32.9159 -32.5055
rradius 119.935
rwrist -22.6764
rhand -19.3882 -42.7304
rfingers 7.12502
rthumb 6.9304 -72.5969
lclavicle -5.88403e-014 -5.59703e-015
lhumerus 16.1252 47.8227 1.1064
lradius 108.174
lwrist 33.7537
lhand -4.364 -26.0636
lfingers 7.12502
lthumb 21.4044 2.77405
rfemur 0.95809 16.5192 -8.72587
rtibia 6.75868e-015
rfoot 32.7784 -22.8869
rtoes 20.3378
lfemur -10.5346 -21.2907 2.98472
ltibia 17.7649
lfoot 37.401 11.3044
ltoes 17.419
570
root 10.7539 6.02889 11.6491 -88.4394 3.77 179.639
lowerback -4.79965 -3.28617 5.25315
upperback 0.232448 -4.72529 0.910303
thorax 2.58207 -2.29656 -2.30963
lowerneck 5.04085 -14.673 -10.9168
upperneck -28.9735 -15.5804 29.6471
head -5.64164 -8.43807 12.4354
rclavicle -8.26944e-014 1.18122e-014
rhumerus 31.9894 -32.8953 -32.5538
rradius 120.001
rwrist -22.6711
rhand -19.4121 -42.7337
rfingers 7.12502
rthumb 6.90738 -72.601
lclavicle -8.26944e-014 1.18122e-014
lhumerus 16.062 47.8373 1.11719
lradius 108.249
lwrist 33.7844
lhand -4.29253 -26.178
lfingers 7.12502
lthumb 21.473 2.65184
rfemur 0.972547 16.5017 -8.73314
rtibia 7.95139e-015
rfoot 32.6841 -23.2007
rtoes 21.0954
lfemur -10.6172 -21.2811 2.9622
ltibia 17.8691
lfoot 37.384 11.3382
ltoes 17.636
